<svg width="61" height="67" viewBox="0 0 61 67" fill="none" xmlns="http://www.w3.org/2000/svg">
<path d="M30 0.206055C46.4515 0.206055 59.7939 13.766 59.7939 30.5C59.7939 47.234 46.4515 60.7939 30 60.7939C13.5485 60.7939 0.206055 47.234 0.206055 30.5C0.206055 13.766 13.5485 0.206055 30 0.206055Z" fill="url(#paint0_linear_3049_9426)" stroke="#3B3B3B" stroke-width="0.412345"/>
<mask id="mask0_3049_9426" style="mask-type:alpha" maskUnits="userSpaceOnUse" x="0" y="0" width="60" height="61">
<ellipse cx="30" cy="30.5" rx="30" ry="30.5" fill="#D9D9D9"/>
</mask>
<g mask="url(#mask0_3049_9426)">
<mask id="path-3-outside-1_3049_9426" maskUnits="userSpaceOnUse" x="0.5" y="6.97656" width="60" height="62" fill="black">
<rect fill="white" x="0.5" y="6.97656" width="60" height="62"/>
<path d="M38.3896 24.2302C37.4614 21.9653 31.2906 6.21866 40.043 8.13842C49.3868 10.1883 46.5581 29.0141 46.542 29.1208V29.1462C48.2909 31.0721 49.9354 33.1627 52.0439 34.6384C52.0435 39.3555 48.1561 43.6211 43.1953 45.6072C44.8126 46.3869 46.2735 47.2236 47.5 48.0007C48.9721 48.9335 50.0883 49.7375 50.8887 50.5984C54.4549 53.4134 59.4995 59.0933 59.5 60.4997C59.9998 62.7427 58.4998 63.9996 55.6885 62.7429C53.8111 62.5343 48.7597 57.6476 45.1523 55.3152C44.5675 55.301 44.0075 55.3496 43.5 55.4997C43.3236 55.5519 43.1494 55.6114 42.9766 55.6746C44.9585 59.7779 46.8841 65.8756 46.4033 67.0593C45.6924 68.809 45.2429 68.6024 43.0283 67.7029C41.7019 67.1641 38.6159 63.128 36.5059 59.6003C34.4195 60.9088 32.0696 62.0007 29 62.0007C17.4022 62.0007 1.50054 52.3734 1.5 45.4997C1.50058 41.6633 17.9052 40.886 23.9648 39.1619C23.8979 38.6636 23.8633 38.1348 23.8633 37.574C23.8634 34.3174 25.0245 31.3317 26.9561 29.0095V27.8845C26.9561 27.8845 9.64531 15.4767 18.543 12.6384C27.1582 9.89045 32.6031 22.7313 33.3965 24.74C34.6209 24.3715 35.9191 24.1736 37.2637 24.1736C37.6524 24.1736 38.0275 24.1933 38.3896 24.2302Z"/>
</mask>
<path d="M38.3896 24.2302C37.4614 21.9653 31.2906 6.21866 40.043 8.13842C49.3868 10.1883 46.5581 29.0141 46.542 29.1208V29.1462C48.2909 31.0721 49.9354 33.1627 52.0439 34.6384C52.0435 39.3555 48.1561 43.6211 43.1953 45.6072C44.8126 46.3869 46.2735 47.2236 47.5 48.0007C48.9721 48.9335 50.0883 49.7375 50.8887 50.5984C54.4549 53.4134 59.4995 59.0933 59.5 60.4997C59.9998 62.7427 58.4998 63.9996 55.6885 62.7429C53.8111 62.5343 48.7597 57.6476 45.1523 55.3152C44.5675 55.301 44.0075 55.3496 43.5 55.4997C43.3236 55.5519 43.1494 55.6114 42.9766 55.6746C44.9585 59.7779 46.8841 65.8756 46.4033 67.0593C45.6924 68.809 45.2429 68.6024 43.0283 67.7029C41.7019 67.1641 38.6159 63.128 36.5059 59.6003C34.4195 60.9088 32.0696 62.0007 29 62.0007C17.4022 62.0007 1.50054 52.3734 1.5 45.4997C1.50058 41.6633 17.9052 40.886 23.9648 39.1619C23.8979 38.6636 23.8633 38.1348 23.8633 37.574C23.8634 34.3174 25.0245 31.3317 26.9561 29.0095V27.8845C26.9561 27.8845 9.64531 15.4767 18.543 12.6384C27.1582 9.89045 32.6031 22.7313 33.3965 24.74C34.6209 24.3715 35.9191 24.1736 37.2637 24.1736C37.6524 24.1736 38.0275 24.1933 38.3896 24.2302Z" fill="white"/>
<path d="M38.3896 24.2302L38.3481 24.6381L39.0283 24.7074L38.769 24.0747L38.3896 24.2302ZM40.043 8.13842L40.1308 7.73794L40.1308 7.73794L40.043 8.13842ZM46.542 29.1208L46.1366 29.0596L46.132 29.0901V29.1208H46.542ZM46.542 29.1462H46.132V29.3046L46.2385 29.4219L46.542 29.1462ZM52.0439 34.6384L52.4539 34.6385L52.454 34.4249L52.279 34.3025L52.0439 34.6384ZM43.1953 45.6072L43.0429 45.2265L42.1791 45.5724L43.0173 45.9765L43.1953 45.6072ZM47.5 48.0007L47.7194 47.6544H47.7194L47.5 48.0007ZM50.8887 50.5984L50.5884 50.8776L50.6099 50.9007L50.6346 50.9202L50.8887 50.5984ZM59.5 60.4997L59.09 60.4999L59.09 60.5449L59.0998 60.5889L59.5 60.4997ZM55.6885 62.7429L55.8558 62.3686L55.7974 62.3425L55.7338 62.3354L55.6885 62.7429ZM45.1523 55.3152L45.375 54.9709L45.2779 54.9081L45.1623 54.9053L45.1523 55.3152ZM43.5 55.4997L43.3837 55.1066L43.3837 55.1066L43.5 55.4997ZM42.9766 55.6745L42.8359 55.2894L42.4103 55.4449L42.6074 55.8529L42.9766 55.6745ZM46.4033 67.0593L46.7832 67.2136L46.7832 67.2136L46.4033 67.0593ZM43.0283 67.7029L43.1826 67.323V67.323L43.0283 67.7029ZM36.5059 59.6003L36.8577 59.3899L36.6428 59.0305L36.288 59.253L36.5059 59.6003ZM1.5 45.4997L1.09 45.4997V45.4998L1.5 45.4997ZM23.9648 39.1619L24.077 39.5562L24.4184 39.4591L24.3712 39.1073L23.9648 39.1619ZM23.8633 37.574L23.4533 37.574V37.574L23.8633 37.574ZM26.9561 29.0095L27.2713 29.2717L27.3661 29.1577V29.0095H26.9561ZM26.9561 27.8845H27.3661V27.6739L27.1949 27.5513L26.9561 27.8845ZM18.543 12.6384L18.4184 12.2478L18.4184 12.2478L18.543 12.6384ZM33.3965 24.74L33.0152 24.8906L33.1536 25.2412L33.5146 25.1326L33.3965 24.74ZM37.2637 24.1736V23.7636H37.2637L37.2637 24.1736ZM38.3896 24.2302L38.769 24.0747C38.3056 22.9441 36.5489 18.4823 35.992 14.5575C35.7112 12.5784 35.7511 10.8317 36.3264 9.71169C36.6052 9.16899 37.0059 8.78026 37.5655 8.56947C38.1348 8.35504 38.9095 8.30955 39.9551 8.5389L40.043 8.13842L40.1308 7.73794C38.9883 7.48735 38.0414 7.51399 37.2765 7.8021C36.5019 8.09385 35.956 8.63805 35.597 9.33703C34.8967 10.7004 34.8963 12.6719 35.1801 14.6727C35.7526 18.7074 37.5454 23.2514 38.0103 24.3857L38.3896 24.2302ZM40.043 8.13842L39.9551 8.53889C42.1387 9.01792 43.6275 10.4738 44.6374 12.4531C45.6522 14.4416 46.167 16.9316 46.3942 19.396C46.8483 24.3215 46.1433 29.0151 46.1366 29.0596L46.542 29.1208L46.9474 29.1821C46.9568 29.1199 47.6742 24.3472 47.2107 19.3207C46.9792 16.809 46.4502 14.2015 45.3679 12.0803C44.2807 9.94989 42.6192 8.28384 40.1308 7.73794L40.043 8.13842ZM46.542 29.1208H46.132V29.1462H46.542H46.952V29.1208H46.542ZM46.542 29.1462L46.2385 29.4219C47.9593 31.3168 49.6509 33.464 51.8089 34.9743L52.0439 34.6384L52.279 34.3025C50.2199 32.8614 48.6225 30.8274 46.8455 28.8706L46.542 29.1462ZM52.0439 34.6384L51.6339 34.6384C51.6336 39.1262 47.9148 43.2761 43.0429 45.2265L43.1953 45.6072L43.3477 45.9878C48.3975 43.9661 52.4535 39.5849 52.4539 34.6385L52.0439 34.6384ZM43.1953 45.6072L43.0173 45.9765C44.6185 46.7485 46.0656 47.5773 47.2806 48.3471L47.5 48.0007L47.7194 47.6544C46.4813 46.8699 45.0066 46.0253 43.3734 45.2378L43.1953 45.6072ZM47.5 48.0007L47.2806 48.3471C48.7485 49.2772 49.8263 50.0578 50.5884 50.8776L50.8887 50.5984L51.1889 50.3192C50.3503 49.4172 49.1957 48.5898 47.7194 47.6544L47.5 48.0007ZM50.8887 50.5984L50.6346 50.9202C52.3929 52.308 54.5276 54.4128 56.2232 56.3475C57.0706 57.3144 57.8011 58.2306 58.3172 58.9864C58.5756 59.3648 58.7749 59.6953 58.908 59.9666C59.048 60.2519 59.09 60.4231 59.09 60.4999L59.5 60.4997L59.91 60.4996C59.9099 60.2247 59.7941 59.9108 59.6442 59.6054C59.4874 59.2858 59.2647 58.9198 58.9944 58.524C58.453 57.7312 57.6994 56.7878 56.8398 55.8071C55.1215 53.8464 52.9507 51.7037 51.1427 50.2766L50.8887 50.5984ZM59.5 60.4997L59.0998 60.5889C59.3306 61.6247 59.0738 62.2859 58.6103 62.5913C58.1213 62.9136 57.2135 62.9755 55.8558 62.3686L55.6885 62.7429L55.5212 63.1172C56.9747 63.767 58.2226 63.8288 59.0615 63.276C59.9258 62.7065 60.1692 61.6177 59.9002 60.4106L59.5 60.4997ZM55.6885 62.7429L55.7338 62.3354C55.5673 62.3169 55.3322 62.2409 55.0242 62.0909C54.7213 61.9434 54.3722 61.7367 53.9833 61.4801C53.2051 60.9666 52.2968 60.2728 51.3233 59.5037C49.3908 57.977 47.2003 56.151 45.375 54.9709L45.1523 55.3152L44.9297 55.6595C46.7118 56.8117 48.8507 58.5953 50.815 60.1472C51.7899 60.9174 52.7219 61.6302 53.5316 62.1645C53.9367 62.4318 54.3184 62.6593 54.6652 62.8282C55.0068 62.9944 55.3403 63.1167 55.6432 63.1504L55.6885 62.7429ZM45.1523 55.3152L45.1623 54.9053C44.5508 54.8904 43.9451 54.9405 43.3837 55.1066L43.5 55.4997L43.6163 55.8929C44.0699 55.7587 44.5843 55.7115 45.1424 55.7251L45.1523 55.3152ZM43.5 55.4997L43.3837 55.1066C43.1966 55.1619 43.0139 55.2244 42.8359 55.2894L42.9766 55.6745L43.1172 56.0597C43.2849 55.9984 43.4506 55.9419 43.6163 55.8929L43.5 55.4997ZM42.9766 55.6745L42.6074 55.8529C43.5882 57.8837 44.5578 60.4142 45.2214 62.5818C45.5533 63.666 45.8059 64.6503 45.9459 65.4305C46.0159 65.8211 46.0561 66.1518 46.0657 66.4135C46.0757 66.6879 46.0497 66.8404 46.0235 66.905L46.4033 67.0593L46.7832 67.2136C46.8771 66.9823 46.8961 66.6854 46.8851 66.3836C46.8737 66.0693 46.8268 65.6974 46.753 65.2857C46.6052 64.4615 46.3426 63.443 46.0055 62.3418C45.331 60.1388 44.3468 57.5688 43.3458 55.4962L42.9766 55.6745ZM46.4033 67.0593L46.0235 66.905C45.8486 67.3353 45.7064 67.601 45.5722 67.7625C45.4527 67.9062 45.3523 67.9536 45.2332 67.9672C45.0851 67.9841 44.8688 67.9524 44.5167 67.838C44.1695 67.7251 43.7427 67.5505 43.1826 67.323L43.0283 67.7029L42.874 68.0827C43.4213 68.305 43.8811 68.4936 44.2633 68.6178C44.6405 68.7404 44.9963 68.8196 45.3263 68.7819C45.6852 68.7409 45.9689 68.5681 46.2028 68.2866C46.422 68.0229 46.6026 67.6582 46.7832 67.2136L46.4033 67.0593ZM43.0283 67.7029L43.1826 67.323C42.9346 67.2223 42.5435 66.9234 42.0364 66.4158C41.5426 65.9216 40.9773 65.2695 40.3824 64.518C39.1931 63.0156 37.9042 61.1394 36.8577 59.3899L36.5059 59.6003L36.154 59.8108C37.2175 61.5889 38.5266 63.4947 39.7395 65.0269C40.3456 65.7927 40.9324 66.4711 41.4563 66.9954C41.9668 67.5064 42.4588 67.9141 42.874 68.0827L43.0283 67.7029ZM36.5059 59.6003L36.288 59.253C34.2348 60.5407 31.9618 61.5907 29 61.5907V62.0007V62.4107C32.1774 62.4107 34.6043 61.2769 36.7237 59.9477L36.5059 59.6003ZM29 62.0007V61.5907C23.2976 61.5907 16.4958 59.2174 11.1125 55.9766C8.4241 54.3582 6.10917 52.5349 4.47174 50.7045C2.82477 48.8634 1.91012 47.0682 1.91 45.4997L1.5 45.4997L1.09 45.4998C1.09015 47.3681 2.16342 49.354 3.86059 51.2512C5.5673 53.1591 7.95276 55.0315 10.6896 56.6791C16.1567 59.9704 23.1046 62.4107 29 62.4107V62.0007ZM1.5 45.4997L1.91 45.4998C1.91005 45.1836 2.07477 44.8559 2.4826 44.5089C2.89306 44.1597 3.50955 43.8277 4.30773 43.5152C5.90116 42.8913 8.10794 42.3861 10.5341 41.942C12.9567 41.4985 15.5649 41.1214 17.962 40.7451C20.348 40.3704 22.5342 39.9952 24.077 39.5562L23.9648 39.1619L23.8526 38.7675C22.3657 39.1906 20.2289 39.5591 17.8348 39.935C15.4517 40.3092 12.8226 40.6895 10.3865 41.1354C7.95395 41.5807 5.68072 42.097 4.00875 42.7516C3.17424 43.0784 2.46168 43.4501 1.95122 43.8844C1.43814 44.321 1.0901 44.8568 1.09 45.4997L1.5 45.4997ZM23.9648 39.1619L24.3712 39.1073C24.3069 38.6284 24.2733 38.118 24.2733 37.574L23.8633 37.574L23.4533 37.574C23.4533 38.1517 23.489 38.6987 23.5585 39.2164L23.9648 39.1619ZM23.8633 37.574L24.2733 37.574C24.2734 34.4166 25.3987 31.5229 27.2713 29.2717L26.9561 29.0095L26.6408 28.7473C24.6503 31.1405 23.4534 34.2182 23.4533 37.574L23.8633 37.574ZM26.9561 29.0095H27.3661V27.8845H26.9561H26.5461V29.0095H26.9561ZM26.9561 27.8845C27.1949 27.5513 27.1949 27.5513 27.1948 27.5512C27.1947 27.5511 27.1946 27.551 27.1943 27.5509C27.1939 27.5505 27.1932 27.55 27.1922 27.5493C27.1903 27.548 27.1873 27.5458 27.1833 27.5429C27.1754 27.5372 27.1633 27.5285 27.1474 27.517C27.1156 27.4939 27.0682 27.4594 27.0066 27.4141C26.8834 27.3235 26.7033 27.19 26.4769 27.0188C26.0241 26.6764 25.3866 26.1836 24.6491 25.5834C23.1721 24.3815 21.3025 22.7553 19.7131 21.0466C18.1085 19.3216 16.8474 17.5725 16.5027 16.1231C16.3341 15.4145 16.3936 14.8167 16.6985 14.3242C17.0072 13.8255 17.6097 13.3665 18.6676 13.029L18.543 12.6384L18.4184 12.2478C17.2518 12.6199 16.4489 13.1696 16.0013 13.8926C15.5497 14.622 15.5019 15.4592 15.7049 16.3129C16.1035 17.9883 17.5018 19.8733 19.1127 21.6051C20.7387 23.3531 22.6408 25.0063 24.1315 26.2194C24.8778 26.8268 25.5232 27.3256 25.9823 27.6728C26.2119 27.8465 26.395 27.9823 26.521 28.0749C26.584 28.1212 26.6328 28.1567 26.6659 28.1807C26.6825 28.1927 26.6952 28.2019 26.7038 28.2081C26.7081 28.2112 26.7113 28.2135 26.7136 28.2152C26.7147 28.216 26.7156 28.2166 26.7162 28.217C26.7165 28.2172 26.7167 28.2174 26.7169 28.2175C26.7171 28.2177 26.7172 28.2178 26.9561 27.8845ZM18.543 12.6384L18.6676 13.029C22.7233 11.7354 26.0768 14.0823 28.5849 17.1642C31.0818 20.2324 32.623 23.8976 33.0152 24.8906L33.3965 24.74L33.7778 24.5894C33.3766 23.5736 31.7986 19.8141 29.2209 16.6467C26.6545 13.493 22.9779 10.7935 18.4184 12.2478L18.543 12.6384ZM33.3965 24.74L33.5146 25.1326C34.7012 24.7755 35.9596 24.5836 37.2637 24.5836L37.2637 24.1736L37.2637 23.7636C35.8787 23.7636 34.5407 23.9675 33.2783 24.3474L33.3965 24.74ZM37.2637 24.1736V24.5836C37.6385 24.5836 37.9998 24.6026 38.3481 24.6381L38.3896 24.2302L38.4312 23.8223C38.0553 23.784 37.6663 23.7636 37.2637 23.7636V24.1736Z" fill="#77787C" mask="url(#path-3-outside-1_3049_9426)"/>
</g>
<mask id="path-5-outside-2_3049_9426" maskUnits="userSpaceOnUse" x="33.1055" y="48.0059" width="28" height="19" fill="black">
<rect fill="white" x="33.1055" y="48.0059" width="28" height="19"/>
<path d="M38.7344 52.7734C41.1253 52.803 49.9225 62.7793 49.8994 64.6689C49.8761 66.5584 49.3822 66.5295 46.9912 66.5C44.5996 66.4699 34.0821 59.1491 34.1055 57.2598C34.1291 55.3704 36.3435 52.7439 38.7344 52.7734ZM46.9932 49.0156C49.3607 48.6755 59.7459 56.8867 60.0156 58.7568C60.8306 60.9057 59.5256 62.3633 56.5635 61.5205C54.3627 61.5921 46.9868 55.9852 43.3086 55C43.0391 53.1297 44.6265 49.3568 46.9932 49.0156Z"/>
</mask>
<path d="M38.7344 52.7734C41.1253 52.803 49.9225 62.7793 49.8994 64.6689C49.8761 66.5584 49.3822 66.5295 46.9912 66.5C44.5996 66.4699 34.0821 59.1491 34.1055 57.2598C34.1291 55.3704 36.3435 52.7439 38.7344 52.7734ZM46.9932 49.0156C49.3607 48.6755 59.7459 56.8867 60.0156 58.7568C60.8306 60.9057 59.5256 62.3633 56.5635 61.5205C54.3627 61.5921 46.9868 55.9852 43.3086 55C43.0391 53.1297 44.6265 49.3568 46.9932 49.0156Z" fill="white"/>
<path d="M38.7344 52.7734L38.7394 52.3635H38.7394L38.7344 52.7734ZM49.8994 64.6689L50.3094 64.674V64.6739L49.8994 64.6689ZM46.9912 66.5L46.986 66.91L46.9861 66.91L46.9912 66.5ZM34.1055 57.2598L33.6955 57.2546L33.6955 57.2547L34.1055 57.2598ZM46.9932 49.0156L46.9349 48.6098L46.9347 48.6098L46.9932 49.0156ZM60.0156 58.7568L59.6098 58.8154L59.6163 58.86L59.6323 58.9022L60.0156 58.7568ZM56.5635 61.5205L56.6757 61.1262L56.6141 61.1086L56.5501 61.1107L56.5635 61.5205ZM43.3086 55L42.9028 55.0585L42.9413 55.3261L43.2025 55.396L43.3086 55ZM38.7344 52.7734L38.7293 53.1834C38.913 53.1857 39.2322 53.2943 39.6919 53.5679C40.1354 53.8318 40.6565 54.2164 41.2281 54.6936C42.3699 55.6468 43.6793 56.9414 44.9193 58.3C46.1589 59.6582 47.3201 61.0706 48.1673 62.2557C48.5914 62.8489 48.9315 63.3779 49.1629 63.8101C49.2787 64.0262 49.3636 64.2113 49.4184 64.3633C49.4752 64.521 49.49 64.6171 49.4894 64.6639L49.8994 64.6689L50.3094 64.6739C50.3117 64.4846 50.2605 64.2813 50.1898 64.0853C50.1171 63.8835 50.013 63.6604 49.8858 63.4229C49.6312 62.9477 49.2691 62.387 48.8344 61.7788C47.9638 60.561 46.7807 59.1231 45.525 57.7473C44.2697 56.3719 42.933 55.0488 41.7536 54.0641C41.1645 53.5723 40.6063 53.1579 40.1112 52.8632C39.6323 52.5782 39.1535 52.3686 38.7394 52.3635L38.7344 52.7734ZM49.8994 64.6689L49.4894 64.6639C49.4837 65.1286 49.4482 65.4279 49.3822 65.6274C49.3234 65.8049 49.2472 65.8857 49.1413 65.9418C49.0096 66.0115 48.7965 66.0609 48.4268 66.0828C48.0622 66.1044 47.6009 66.0975 46.9963 66.09L46.9912 66.5L46.9861 66.91C47.577 66.9173 48.0741 66.9251 48.4753 66.9013C48.8714 66.8779 49.2316 66.8219 49.5251 66.6664C49.8445 66.4972 50.0455 66.2327 50.1606 65.8852C50.2684 65.5596 50.3035 65.154 50.3094 64.674L49.8994 64.6689ZM46.9912 66.5L46.9964 66.09C46.7776 66.0873 46.411 65.9948 45.9023 65.7912C45.4061 65.5925 44.8145 65.3047 44.1617 64.9491C42.8569 64.2384 41.3325 63.2705 39.8796 62.2424C38.4259 61.2137 37.0546 60.1323 36.0525 59.1967C35.5505 58.7279 35.1508 58.3047 34.8806 57.9497C34.7455 57.7722 34.6495 57.6204 34.589 57.4957C34.5263 57.3664 34.5151 57.2932 34.5154 57.2648L34.1055 57.2598L33.6955 57.2547C33.6929 57.4625 33.7612 57.6679 33.8512 57.8535C33.9433 58.0435 34.0732 58.2428 34.2281 58.4463C34.538 58.8534 34.9748 59.3123 35.4929 59.7961C36.531 60.7654 37.9342 61.8703 39.4059 62.9118C40.8784 63.9537 42.4303 64.9398 43.7695 65.6692C44.4386 66.0337 45.0609 66.3376 45.5975 66.5524C46.1217 66.7623 46.607 66.9052 46.986 66.91L46.9912 66.5ZM34.1055 57.2598L34.5154 57.2649C34.5255 56.4583 35.017 55.4239 35.8277 54.5813C36.6342 53.7429 37.6838 53.1705 38.7293 53.1834L38.7344 52.7734L38.7394 52.3635C37.3941 52.3469 36.141 53.0729 35.2368 54.0128C34.3366 54.9483 33.709 56.1719 33.6955 57.2546L34.1055 57.2598ZM46.9932 49.0156L47.0515 49.4215C47.2371 49.3948 47.574 49.451 48.0748 49.6427C48.5586 49.8279 49.1393 50.1169 49.7849 50.4869C51.0748 51.2261 52.5877 52.2676 54.0416 53.3827C55.4951 54.4975 56.8792 55.6777 57.913 56.6908C58.4306 57.198 58.8536 57.6567 59.1525 58.0396C59.302 58.2312 59.4154 58.3974 59.4935 58.5363C59.5745 58.6805 59.6034 58.7709 59.6098 58.8154L60.0156 58.7568L60.4214 58.6983C60.3941 58.509 60.3103 58.3161 60.2084 58.1347C60.1035 57.948 59.9639 57.7464 59.7989 57.5351C59.469 57.1124 59.0179 56.6254 58.487 56.1051C57.4237 55.0632 56.013 53.8613 54.5406 52.732C53.0685 51.603 51.5243 50.5386 50.1927 49.7755C49.5275 49.3943 48.9063 49.083 48.368 48.8769C47.8467 48.6774 47.3411 48.5514 46.9349 48.6098L46.9932 49.0156ZM60.0156 58.7568L59.6323 58.9022C60.0086 59.8947 59.8489 60.5855 59.4338 60.9539C58.9959 61.3425 58.1063 61.5332 56.6757 61.1262L56.5635 61.5205L56.4513 61.9149C57.9827 62.3506 59.2267 62.2339 59.9781 61.5672C60.7523 60.8802 60.8375 59.7678 60.399 58.6115L60.0156 58.7568ZM56.5635 61.5205L56.5501 61.1107C56.3525 61.1172 56.0545 61.058 55.6497 60.9148C55.2528 60.7744 54.7868 60.5657 54.265 60.304C53.2209 59.7802 51.9897 59.0625 50.6978 58.3031C49.4114 57.5469 48.0673 56.7508 46.8149 56.0828C45.568 55.4177 44.3825 54.8632 43.4147 54.604L43.3086 55L43.2025 55.396C44.0738 55.6294 45.1896 56.1452 46.429 56.8063C47.6629 57.4644 48.9899 58.2503 50.2823 59.01C51.5693 59.7666 52.8245 60.4987 53.8973 61.0369C54.434 61.3061 54.934 61.5314 55.3762 61.6878C55.8103 61.8414 56.2243 61.9418 56.5768 61.9303L56.5635 61.5205ZM43.3086 55L43.7144 54.9415C43.5965 54.1233 43.8889 52.803 44.5231 51.6293C45.1611 50.4484 46.0629 49.564 47.0517 49.4214L46.9932 49.0156L46.9347 48.6098C45.5568 48.8085 44.4816 49.9811 43.8016 51.2395C43.1178 52.5051 42.7512 54.0064 42.9028 55.0585L43.3086 55Z" fill="#77787C" mask="url(#path-5-outside-2_3049_9426)"/>
<path d="M52.517 34.7584C52.517 35.4415 51.8985 35.7892 51.28 35.9954C50.6615 35.7892 50.043 35.4415 50.043 34.7584C50.043 34.0752 50.5968 34.1398 51.28 34.1398C51.9632 34.1398 52.517 34.0752 52.517 34.7584Z" fill="#141218"/>
<path d="M43.2055 34.6213C43.2055 35.3045 42.6517 35.8583 41.9685 35.8583C41.2853 35.8583 40.7314 35.3045 40.7314 34.6213C40.7314 33.9381 41.2853 33.3843 41.9685 33.3843C42.6517 33.3843 43.2055 33.9381 43.2055 34.6213Z" fill="#141218"/>
<path d="M29.9998 48.0003C32.5649 41.0378 44 45.5001 49 49C51.2395 50.5676 52.945 52.4349 52 55C50.9268 57.9128 47.3748 55.0244 44 55.5C42.2674 55.7441 41.1089 59.1098 39 59.5C37.7316 60.0436 36.824 60.4776 35.5 60C33.1706 59.1597 30.5998 56.6288 29.9998 55.0003C29.0548 52.4351 29.0548 50.5654 29.9998 48.0003Z" fill="white"/>
<defs>
<linearGradient id="paint0_linear_3049_9426" x1="30" y1="0" x2="30" y2="61" gradientUnits="userSpaceOnUse">
<stop stop-color="#252629"/>
<stop offset="0.9999" stop-color="#141218"/>
</linearGradient>
</defs>
</svg>
