<svg width="53" height="55" viewBox="0 0 53 55" fill="none" xmlns="http://www.w3.org/2000/svg">
<circle cx="26.1839" cy="26.1839" r="25.9777" fill="url(#paint0_linear_830_11811)" stroke="#3B3B3B" stroke-width="0.412345"/>
<mask id="path-2-inside-1_830_11811" fill="white">
<path fill-rule="evenodd" clip-rule="evenodd" d="M15.9127 33.2609C15.9127 33.2609 7.01462 16.7189 15.9127 13.8807C22.9099 11.6488 23.7044 23.6387 23.6627 29.7937C24.4909 29.6336 25.3463 29.5497 26.2212 29.5497C26.9836 29.5497 27.7311 29.6134 28.4587 29.7357C28.6019 23.8904 29.7876 12.9751 36.7362 14.4992C44.9343 16.2974 37.8411 30.256 35.9375 33.7213C38.2211 36.1245 39.6224 39.3741 39.6224 42.9509C39.6224 50.3522 33.6225 52.1617 26.2212 52.1617C18.8199 52.1617 12.82 50.3522 12.82 42.9509C12.82 39.6945 13.9815 36.7094 15.9127 34.3872V33.2609Z"/>
</mask>
<path fill-rule="evenodd" clip-rule="evenodd" d="M15.9127 33.2609C15.9127 33.2609 7.01462 16.7189 15.9127 13.8807C22.9099 11.6488 23.7044 23.6387 23.6627 29.7937C24.4909 29.6336 25.3463 29.5497 26.2212 29.5497C26.9836 29.5497 27.7311 29.6134 28.4587 29.7357C28.6019 23.8904 29.7876 12.9751 36.7362 14.4992C44.9343 16.2974 37.8411 30.256 35.9375 33.7213C38.2211 36.1245 39.6224 39.3741 39.6224 42.9509C39.6224 50.3522 33.6225 52.1617 26.2212 52.1617C18.8199 52.1617 12.82 50.3522 12.82 42.9509C12.82 39.6945 13.9815 36.7094 15.9127 34.3872V33.2609Z" fill="white"/>
<path d="M15.9127 13.8807L15.7874 13.4879L15.9127 13.8807ZM15.9127 33.2609H16.3251V33.157L16.2759 33.0655L15.9127 33.2609ZM23.6627 29.7937L23.2504 29.7909L23.247 30.294L23.741 30.1985L23.6627 29.7937ZM28.4587 29.7357L28.3904 30.1423L28.8593 30.2211L28.8709 29.7458L28.4587 29.7357ZM36.7362 14.4992L36.6478 14.902L36.7362 14.4992ZM35.9375 33.7213L35.5761 33.5227L35.431 33.7869L35.6386 34.0053L35.9375 33.7213ZM15.9127 34.3872L16.2298 34.6509L16.3251 34.5363V34.3872H15.9127ZM15.7874 13.4879C13.3999 14.2494 12.1985 15.9495 11.7556 18.02C11.3191 20.0608 11.6141 22.467 12.1757 24.7343C12.7394 27.01 13.5831 29.1897 14.2834 30.7966C14.634 31.601 14.9497 32.2643 15.178 32.727C15.2922 32.9584 15.3846 33.1398 15.4487 33.2638C15.4807 33.3258 15.5057 33.3734 15.5228 33.4058C15.5313 33.422 15.5379 33.4343 15.5424 33.4428C15.5447 33.447 15.5464 33.4502 15.5476 33.4525C15.5482 33.4536 15.5487 33.4545 15.549 33.4551C15.5492 33.4554 15.5493 33.4557 15.5494 33.4558C15.5495 33.4561 15.5496 33.4562 15.9127 33.2609C16.2759 33.0655 16.2759 33.0655 16.2759 33.0655C16.2758 33.0654 16.2757 33.0653 16.2756 33.0651C16.2754 33.0647 16.2751 33.0641 16.2746 33.0632C16.2737 33.0614 16.2722 33.0587 16.2702 33.0549C16.2662 33.0475 16.2602 33.0361 16.2521 33.0209C16.2361 32.9905 16.2122 32.9449 16.1812 32.885C16.1193 32.7653 16.0293 32.5885 15.9175 32.3621C15.694 31.9091 15.384 31.2578 15.0394 30.4671C14.3494 28.8837 13.5247 26.7505 12.9762 24.536C12.4255 22.3129 12.1644 20.0515 12.5621 18.1925C12.9534 16.3631 13.9764 14.9311 16.038 14.2736L15.7874 13.4879ZM24.0751 29.7965C24.0959 26.7128 23.9092 22.1231 22.8216 18.5714C22.2789 16.7992 21.4954 15.2285 20.3498 14.2469C19.1744 13.2398 17.6612 12.8902 15.7874 13.4879L16.038 14.2736C17.6629 13.7553 18.8729 14.0675 19.8132 14.8731C20.7831 15.7042 21.5077 17.0972 22.033 18.8129C23.0815 22.2369 23.2712 26.7196 23.2504 29.7909L24.0751 29.7965ZM23.741 30.1985C24.5435 30.0434 25.3727 29.9621 26.2212 29.9621V29.1374C25.3199 29.1374 24.4383 29.2238 23.5845 29.3888L23.741 30.1985ZM26.2212 29.9621C26.9606 29.9621 27.6852 30.0238 28.3904 30.1423L28.5271 29.329C27.7769 29.203 27.0066 29.1374 26.2212 29.1374V29.9621ZM36.8245 14.0965C34.9673 13.6891 33.4601 14.1136 32.269 15.097C31.0974 16.0642 30.2608 17.5467 29.6576 19.2136C28.451 22.5483 28.1183 26.7942 28.0465 29.7256L28.8709 29.7458C28.9423 26.8318 29.274 22.6975 30.4331 19.4942C31.0129 17.8921 31.7845 16.5663 32.794 15.7329C33.7839 14.9157 35.0307 14.5473 36.6478 14.902L36.8245 14.0965ZM36.2989 33.9198C37.2536 32.1819 39.5261 27.7852 40.5261 23.5805C41.0249 21.4833 41.2213 19.3787 40.7343 17.6615C40.4888 16.7957 40.0674 16.0209 39.4185 15.4011C38.769 14.7809 37.9117 14.3349 36.8245 14.0965L36.6478 14.902C37.6101 15.1131 38.3245 15.4967 38.8489 15.9975C39.3737 16.4988 39.7283 17.1366 39.9409 17.8865C40.3703 19.4005 40.2115 21.3393 39.7238 23.3897C38.7509 27.4801 36.525 31.7954 35.5761 33.5227L36.2989 33.9198ZM35.6386 34.0053C37.8523 36.335 39.2101 39.4839 39.2101 42.9509H40.0348C40.0348 39.2642 38.5899 35.914 36.2364 33.4372L35.6386 34.0053ZM39.2101 42.9509C39.2101 44.7449 38.8468 46.1735 38.2096 47.311C37.573 48.4472 36.65 49.3164 35.4936 49.9732C33.1649 51.296 29.9044 51.7493 26.2212 51.7493V52.574C29.9393 52.574 33.3795 52.1226 35.901 50.6903C37.1697 49.9697 38.2093 48.9988 38.929 47.7141C39.648 46.4307 40.0348 44.8576 40.0348 42.9509H39.2101ZM26.2212 51.7493C22.538 51.7493 19.2776 51.296 16.9488 49.9732C15.7924 49.3164 14.8694 48.4472 14.2329 47.311C13.5956 46.1735 13.2323 44.7449 13.2323 42.9509H12.4076C12.4076 44.8576 12.7944 46.4307 13.5134 47.7141C14.2331 48.9988 15.2727 49.9697 16.5415 50.6903C19.063 52.1226 22.5031 52.574 26.2212 52.574V51.7493ZM13.2323 42.9509C13.2323 39.7944 14.3578 36.9018 16.2298 34.6509L15.5957 34.1236C13.6051 36.5171 12.4076 39.5947 12.4076 42.9509H13.2323ZM15.5004 33.2609V34.3872H16.3251V33.2609H15.5004Z" fill="#3B3B3B" mask="url(#path-2-inside-1_830_11811)"/>
<path d="M17.1128 48.4624C19.4376 48.4626 21.2355 49.9445 21.2358 51.6772C21.2358 52.1124 21.1245 52.4532 20.9331 52.7231C20.7405 52.9946 20.4567 53.2086 20.0894 53.3735C19.3477 53.7064 18.3024 53.8227 17.1128 53.8228C15.923 53.8228 14.877 53.7065 14.1353 53.3735C13.7679 53.2086 13.4841 52.9946 13.2915 52.7231C13.1001 52.4532 12.9888 52.1124 12.9888 51.6772C12.9891 49.9444 14.7878 48.4624 17.1128 48.4624Z" fill="white" stroke="#3B3B3B" stroke-width="0.412345"/>
<path d="M34.0186 48.4624C36.3433 48.4626 38.1413 49.9445 38.1416 51.6772C38.1416 52.1124 38.0302 52.4532 37.8389 52.7231C37.6463 52.9946 37.3625 53.2086 36.9951 53.3735C36.2535 53.7064 35.2082 53.8227 34.0186 53.8228C32.8287 53.8228 31.7828 53.7065 31.041 53.3735C30.6737 53.2086 30.3898 52.9946 30.1973 52.7231C30.0059 52.4532 29.8945 52.1124 29.8945 51.6772C29.8948 49.9444 31.6935 48.4624 34.0186 48.4624Z" fill="white" stroke="#3B3B3B" stroke-width="0.412345"/>
<circle cx="20.2048" cy="41.2346" r="1.23704" fill="#141218"/>
<path d="M27.6269 44.5332C27.6269 45.2164 27.0084 45.5641 26.3899 45.7703C25.7713 45.5641 25.1528 45.2164 25.1528 44.5332C25.1528 43.85 25.7067 43.9147 26.3899 43.9147C27.0731 43.9147 27.6269 43.85 27.6269 44.5332Z" fill="#141218"/>
<circle cx="32.1628" cy="41.2346" r="1.23704" fill="#141218"/>
<defs>
<linearGradient id="paint0_linear_830_11811" x1="26.1839" y1="0" x2="26.1839" y2="52.3678" gradientUnits="userSpaceOnUse">
<stop stop-color="#323335"/>
<stop offset="0.9999" stop-color="#141218"/>
</linearGradient>
</defs>
</svg>
